<svg width="100" height="100" viewBox="0 0 100 100" fill="none" xmlns="http://www.w3.org/2000/svg">
  <path d="M50 29.9707C38.916 29.9707 29.9707 38.916 29.9707 50C29.9707 61.084 38.916 70.0293 50 70.0293C61.084 70.0293 70.0293 61.084 70.0293 50C70.0293 38.916 61.084 29.9707 50 29.9707ZM50 63.0176C42.832 63.0176 36.9824 57.1679 36.9824 50C36.9824 42.832 42.832 36.9824 50 36.9824C57.1679 36.9824 63.0175 42.832 63.0175 50C63.0175 57.1679 57.1679 63.0176 50 63.0176ZM70.8496 24.4824C68.2617 24.4824 66.1718 26.5722 66.1718 29.1601C66.1718 31.748 68.2617 33.8379 70.8496 33.8379C73.4375 33.8379 75.5273 31.7578 75.5273 29.1601C75.5281 28.5456 75.4076 27.937 75.1728 27.3691C74.938 26.8013 74.5935 26.2853 74.159 25.8508C73.7244 25.4162 73.2085 25.0717 72.6406 24.8369C72.0727 24.6021 71.4641 24.4816 70.8496 24.4824V24.4824ZM89.0429 50C89.0429 44.6094 89.0918 39.2676 88.789 33.8867C88.4863 27.6367 87.0605 22.0898 82.4902 17.5195C77.9101 12.9394 72.373 11.5234 66.123 11.2207C60.7324 10.9179 55.3906 10.9668 50.0097 10.9668C44.6191 10.9668 39.2773 10.9179 33.8965 11.2207C27.6465 11.5234 22.0996 12.9492 17.5293 17.5195C12.9492 22.0996 11.5332 27.6367 11.2304 33.8867C10.9277 39.2773 10.9765 44.6191 10.9765 50C10.9765 55.3808 10.9277 60.7324 11.2304 66.1133C11.5332 72.3633 12.959 77.9101 17.5293 82.4804C22.1093 87.0605 27.6465 88.4765 33.8965 88.7793C39.2871 89.082 44.6289 89.0332 50.0097 89.0332C55.4004 89.0332 60.7422 89.082 66.123 88.7793C72.373 88.4765 77.9199 87.0508 82.4902 82.4804C87.0703 77.9004 88.4863 72.3633 88.789 66.1133C89.1015 60.7324 89.0429 55.3906 89.0429 50V50ZM80.4492 73.0273C79.7363 74.8047 78.8769 76.1328 77.5 77.5C76.123 78.8769 74.8047 79.7363 73.0273 80.4492C67.8906 82.4902 55.6933 82.0312 50 82.0312C44.3066 82.0312 32.0996 82.4902 26.9629 80.459C25.1855 79.7461 23.8574 78.8867 22.4902 77.5097C21.1133 76.1328 20.2539 74.8144 19.541 73.0371C17.5097 67.8906 17.9687 55.6933 17.9687 50C17.9687 44.3066 17.5097 32.0996 19.541 26.9629C20.2539 25.1855 21.1133 23.8574 22.4902 22.4902C23.8672 21.123 25.1855 20.2539 26.9629 19.541C32.0996 17.5097 44.3066 17.9687 50 17.9687C55.6933 17.9687 67.9004 17.5097 73.0371 19.541C74.8144 20.2539 76.1425 21.1133 77.5097 22.4902C78.8867 23.8672 79.7461 25.1855 80.459 26.9629C82.4902 32.0996 82.0312 44.3066 82.0312 50C82.0312 55.6933 82.4902 67.8906 80.4492 73.0273Z" fill="black"/>
</svg>
