<svg width="100" height="100" viewBox="0 0 100 100" fill="none" xmlns="http://www.w3.org/2000/svg">
  <path d="M54.1667 87.5H37.5V37.5H54.1667V45.8333C55.9212 43.6011 58.148 41.7849 60.6874 40.5148C63.2267 39.2448 66.0157 38.5525 68.8542 38.4875C73.8183 38.5151 78.5689 40.5101 82.0643 44.0351C85.5596 47.5602 87.5144 52.3275 87.5 57.2917V87.5H70.8333V59.375C70.511 57.1232 69.3861 55.0636 67.6658 53.5753C65.9455 52.087 63.7456 51.2701 61.4708 51.275C60.4527 51.3072 59.4516 51.5447 58.5276 51.9733C57.6036 52.4019 56.7756 53.0128 56.0935 53.7693C55.4114 54.5257 54.8891 55.4122 54.558 56.3755C54.2269 57.3388 54.0938 58.359 54.1667 59.375V87.5ZM29.1667 87.5H12.5V37.5H29.1667V87.5ZM20.8333 29.1667C18.6232 29.1667 16.5036 28.2887 14.9408 26.7259C13.378 25.1631 12.5 23.0435 12.5 20.8333C12.5 18.6232 13.378 16.5036 14.9408 14.9408C16.5036 13.378 18.6232 12.5 20.8333 12.5C23.0435 12.5 25.1631 13.378 26.7259 14.9408C28.2887 16.5036 29.1667 18.6232 29.1667 20.8333C29.1667 23.0435 28.2887 25.1631 26.7259 26.7259C25.1631 28.2887 23.0435 29.1667 20.8333 29.1667Z" fill="black"/>
</svg>
