<svg width="32" height="32" viewBox="0 0 32 32" fill="none" xmlns="http://www.w3.org/2000/svg">
<rect x="0.5" y="0.5" width="31" height="31" rx="15.5" fill=" var(--cor-secondary)"/>
<path d="M16 32H15.469L18.802 23.068H23.333C24.135 23.068 24.932 22.401 25.198 21.735L28.802 12.001C29.333 10.402 28.401 9.069 26.802 9.069H20.531L12.401 31.6C5.198 29.866 0 23.6 0 16.001C0 8.668 4.932 2.532 11.734 0.532L8.666 9.068L3.468 23.068H6.801L11.067 11.198H13.598L9.332 23.068H12.665L16.665 12C17.196 10.401 16.399 9.068 14.665 9.068H11.998L15.331 0H15.998C24.8 0 31.998 7.198 31.998 16C31.998 24.802 24.8 32 15.998 32H16ZM25.734 11.068H23.198L19.599 20.802H22.135L25.734 11.068Z" fill="white"/>
<rect x="0.5" y="0.5" width="31" height="31" rx="15.5" stroke="white"/>
</svg>
