<svg width="100" height="100" viewBox="0 0 100 100" fill="none" xmlns="http://www.w3.org/2000/svg">
  <path d="M84.96 70.2368C84.793 69.2048 84.146 68.3228 83.177 67.7988L68.842 59.3528L68.724 59.2868C68.123 58.9859 67.4592 58.8317 66.787 58.8368C65.586 58.8368 64.439 59.2918 63.643 60.0898L59.412 64.3228C59.231 64.4948 58.641 64.7438 58.462 64.7528C58.413 64.7488 53.539 64.3978 44.566 55.4238C35.609 46.4688 35.229 41.5798 35.226 41.5798C35.231 41.3298 35.477 40.7418 35.652 40.5598L39.26 36.9528C40.531 35.6788 40.912 33.5668 40.158 31.9308L32.19 16.9378C31.611 15.7458 30.486 15.0098 29.238 15.0098C28.355 15.0098 27.503 15.3758 26.837 16.0408L17.002 25.8538C16.059 26.7918 15.247 28.4318 15.07 29.7518C14.984 30.3828 13.239 45.4448 33.889 66.0978C51.42 83.6268 65.09 84.9888 68.865 84.9888C69.3248 84.9947 69.7844 84.971 70.241 84.9178C71.557 84.7418 73.195 83.9318 74.132 82.9928L83.959 73.1668C84.761 72.3608 85.127 71.2958 84.96 70.2368V70.2368Z" fill="black"/>
</svg>
