<svg width="512" height="512" viewBox="0 0 512 512" fill="none" xmlns="http://www.w3.org/2000/svg">
<g clip-path="url(#clip0)">
<path d="M12.4096 148.02L245.35 253.69C252.15 256.78 259.84 256.78 266.64 253.69L499.58 148.02C516.13 140.51 516.13 115.5 499.58 107.99L266.65 2.31002C263.309 0.782927 259.678 -0.00744629 256.005 -0.00744629C252.331 -0.00744629 248.701 0.782927 245.36 2.31002L12.4096 107.98C-4.14043 115.49 -4.14043 140.51 12.4096 148.02ZM499.59 236.3L441.5 209.97L279.86 283.24C272.3 286.67 264.27 288.41 256 288.41C247.73 288.41 239.71 286.67 232.14 283.24L70.5096 209.97L12.4096 236.3C-4.14043 243.8 -4.14043 268.8 12.4096 276.3L245.35 381.89C252.15 384.97 259.84 384.97 266.64 381.89L499.59 276.3C516.14 268.8 516.14 243.8 499.59 236.3V236.3ZM499.59 364.1L441.72 337.87L279.86 411.24C272.3 414.67 264.27 416.41 256 416.41C247.73 416.41 239.71 414.67 232.14 411.24L70.2896 337.87L12.4096 364.1C-4.14043 371.6 -4.14043 396.6 12.4096 404.1L245.35 509.69C252.15 512.77 259.84 512.77 266.64 509.69L499.59 404.1C516.14 396.6 516.14 371.6 499.59 364.1V364.1Z" fill="#85BC00"/>
</g>
<defs>
<clipPath id="clip0">
<rect width="512" height="512" fill="white"/>
</clipPath>
</defs>
</svg>
