<svg width="155" height="155" viewBox="0 0 155 155" fill="none" xmlns="http://www.w3.org/2000/svg">
<circle cx="5.5" cy="5.5" r="5.5" fill="#84BC00" fill-opacity="0.48"/>
<circle cx="5.5" cy="77.5" r="5.5" fill="#84BC00" fill-opacity="0.48"/>
<circle cx="5.5" cy="41.5" r="5.5" fill="#84BC00" fill-opacity="0.48"/>
<circle cx="5.5" cy="113.5" r="5.5" fill="#84BC00" fill-opacity="0.48"/>
<circle cx="5.5" cy="23.5" r="5.5" fill="#84BC00" fill-opacity="0.48"/>
<circle cx="5.5" cy="95.5" r="5.5" fill="#84BC00" fill-opacity="0.48"/>
<circle cx="5.5" cy="59.5" r="5.5" fill="#84BC00" fill-opacity="0.48"/>
<circle cx="5.5" cy="131.5" r="5.5" fill="#84BC00" fill-opacity="0.48"/>
<circle cx="5.5" cy="149.5" r="5.5" fill="#84BC00" fill-opacity="0.48"/>
<circle cx="77.5" cy="5.5" r="5.5" fill="#84BC00" fill-opacity="0.48"/>
<circle cx="77.5" cy="77.5" r="5.5" fill="#84BC00" fill-opacity="0.48"/>
<circle cx="77.5" cy="41.5" r="5.5" fill="#84BC00" fill-opacity="0.48"/>
<circle cx="77.5" cy="113.5" r="5.5" fill="#84BC00" fill-opacity="0.48"/>
<circle cx="77.5" cy="23.5" r="5.5" fill="#84BC00" fill-opacity="0.48"/>
<circle cx="77.5" cy="95.5" r="5.5" fill="#84BC00" fill-opacity="0.48"/>
<circle cx="77.5" cy="59.5" r="5.5" fill="#84BC00" fill-opacity="0.48"/>
<circle cx="77.5" cy="131.5" r="5.5" fill="#84BC00" fill-opacity="0.48"/>
<circle cx="77.5" cy="149.5" r="5.5" fill="#84BC00" fill-opacity="0.48"/>
<circle cx="41.5" cy="5.5" r="5.5" fill="#84BC00" fill-opacity="0.48"/>
<circle cx="41.5" cy="77.5" r="5.5" fill="#84BC00" fill-opacity="0.48"/>
<circle cx="41.5" cy="41.5" r="5.5" fill="#84BC00" fill-opacity="0.48"/>
<circle cx="41.5" cy="113.5" r="5.5" fill="#84BC00" fill-opacity="0.48"/>
<circle cx="41.5" cy="23.5" r="5.5" fill="#84BC00" fill-opacity="0.48"/>
<circle cx="41.5" cy="95.5" r="5.5" fill="#84BC00" fill-opacity="0.48"/>
<circle cx="41.5" cy="59.5" r="5.5" fill="#84BC00" fill-opacity="0.48"/>
<circle cx="41.5" cy="131.5" r="5.5" fill="#84BC00" fill-opacity="0.48"/>
<circle cx="41.5" cy="149.5" r="5.5" fill="#84BC00" fill-opacity="0.48"/>
<circle cx="113.5" cy="5.5" r="5.5" fill="#84BC00" fill-opacity="0.48"/>
<circle cx="113.5" cy="77.5" r="5.5" fill="#84BC00" fill-opacity="0.48"/>
<circle cx="113.5" cy="41.5" r="5.5" fill="#84BC00" fill-opacity="0.48"/>
<circle cx="113.5" cy="113.5" r="5.5" fill="#84BC00" fill-opacity="0.48"/>
<circle cx="113.5" cy="23.5" r="5.5" fill="#84BC00" fill-opacity="0.48"/>
<circle cx="113.5" cy="95.5" r="5.5" fill="#84BC00" fill-opacity="0.48"/>
<circle cx="113.5" cy="59.5" r="5.5" fill="#84BC00" fill-opacity="0.48"/>
<circle cx="113.5" cy="131.5" r="5.5" fill="#84BC00" fill-opacity="0.48"/>
<circle cx="113.5" cy="149.5" r="5.5" fill="#84BC00" fill-opacity="0.48"/>
<circle cx="23.5" cy="5.5" r="5.5" fill="#84BC00" fill-opacity="0.48"/>
<circle cx="23.5" cy="77.5" r="5.5" fill="#84BC00" fill-opacity="0.48"/>
<circle cx="23.5" cy="41.5" r="5.5" fill="#84BC00" fill-opacity="0.48"/>
<circle cx="23.5" cy="113.5" r="5.5" fill="#84BC00" fill-opacity="0.48"/>
<circle cx="23.5" cy="23.5" r="5.5" fill="#84BC00" fill-opacity="0.48"/>
<circle cx="23.5" cy="95.5" r="5.5" fill="#84BC00" fill-opacity="0.48"/>
<circle cx="23.5" cy="59.5" r="5.5" fill="#84BC00" fill-opacity="0.48"/>
<circle cx="23.5" cy="131.5" r="5.5" fill="#84BC00" fill-opacity="0.48"/>
<circle cx="23.5" cy="149.5" r="5.5" fill="#84BC00" fill-opacity="0.48"/>
<circle cx="95.5" cy="5.5" r="5.5" fill="#84BC00" fill-opacity="0.48"/>
<circle cx="95.5" cy="77.5" r="5.5" fill="#84BC00" fill-opacity="0.48"/>
<circle cx="95.5" cy="41.5" r="5.5" fill="#84BC00" fill-opacity="0.48"/>
<circle cx="95.5" cy="113.5" r="5.5" fill="#84BC00" fill-opacity="0.48"/>
<circle cx="95.5" cy="23.5" r="5.5" fill="#84BC00" fill-opacity="0.48"/>
<circle cx="95.5" cy="95.5" r="5.5" fill="#84BC00" fill-opacity="0.48"/>
<circle cx="95.5" cy="59.5" r="5.5" fill="#84BC00" fill-opacity="0.48"/>
<circle cx="95.5" cy="131.5" r="5.5" fill="#84BC00" fill-opacity="0.48"/>
<circle cx="95.5" cy="149.5" r="5.5" fill="#84BC00" fill-opacity="0.48"/>
<circle cx="59.5" cy="5.5" r="5.5" fill="#84BC00" fill-opacity="0.48"/>
<circle cx="59.5" cy="77.5" r="5.5" fill="#84BC00" fill-opacity="0.48"/>
<circle cx="59.5" cy="41.5" r="5.5" fill="#84BC00" fill-opacity="0.48"/>
<circle cx="59.5" cy="113.5" r="5.5" fill="#84BC00" fill-opacity="0.48"/>
<circle cx="59.5" cy="23.5" r="5.5" fill="#84BC00" fill-opacity="0.48"/>
<circle cx="59.5" cy="95.5" r="5.5" fill="#84BC00" fill-opacity="0.48"/>
<circle cx="59.5" cy="59.5" r="5.5" fill="#84BC00" fill-opacity="0.48"/>
<circle cx="59.5" cy="131.5" r="5.5" fill="#84BC00" fill-opacity="0.48"/>
<circle cx="59.5" cy="149.5" r="5.5" fill="#84BC00" fill-opacity="0.48"/>
<circle cx="131.5" cy="5.5" r="5.5" fill="#84BC00" fill-opacity="0.48"/>
<circle cx="131.5" cy="77.5" r="5.5" fill="#84BC00" fill-opacity="0.48"/>
<circle cx="131.5" cy="41.5" r="5.5" fill="#84BC00" fill-opacity="0.48"/>
<circle cx="131.5" cy="113.5" r="5.5" fill="#84BC00" fill-opacity="0.48"/>
<circle cx="131.5" cy="23.5" r="5.5" fill="#84BC00" fill-opacity="0.48"/>
<circle cx="131.5" cy="95.5" r="5.5" fill="#84BC00" fill-opacity="0.48"/>
<circle cx="131.5" cy="59.5" r="5.5" fill="#84BC00" fill-opacity="0.48"/>
<circle cx="131.5" cy="131.5" r="5.5" fill="#84BC00" fill-opacity="0.48"/>
<circle cx="131.5" cy="149.5" r="5.5" fill="#84BC00" fill-opacity="0.48"/>
<circle cx="149.5" cy="5.5" r="5.5" fill="#84BC00" fill-opacity="0.48"/>
<circle cx="149.5" cy="77.5" r="5.5" fill="#84BC00" fill-opacity="0.48"/>
<circle cx="149.5" cy="41.5" r="5.5" fill="#84BC00" fill-opacity="0.48"/>
<circle cx="149.5" cy="113.5" r="5.5" fill="#84BC00" fill-opacity="0.48"/>
<circle cx="149.5" cy="23.5" r="5.5" fill="#84BC00" fill-opacity="0.48"/>
<circle cx="149.5" cy="95.5" r="5.5" fill="#84BC00" fill-opacity="0.48"/>
<circle cx="149.5" cy="59.5" r="5.5" fill="#84BC00" fill-opacity="0.48"/>
<circle cx="149.5" cy="131.5" r="5.5" fill="#84BC00" fill-opacity="0.48"/>
<circle cx="149.5" cy="149.5" r="5.5" fill="#84BC00" fill-opacity="0.48"/>
</svg>
